<svg width="240" height="37" viewBox="0 0 240 37" fill="none" xmlns="http://www.w3.org/2000/svg">
<path d="M25.065 1.04506L0.615 17.3451C-0.205 17.8951 -0.205 19.1051 0.615 19.6551L25.065 35.9551C25.415 36.1851 25.865 36.1851 26.205 35.9551L51.095 19.3651C51.705 18.9551 51.705 18.0551 51.095 17.6551L26.205 1.04506C25.855 0.815059 25.405 0.815059 25.065 1.04506ZM5.505 18.2051L25.435 4.92506C25.555 4.84506 25.715 4.84506 25.835 4.92506L45.785 18.2251C45.985 18.3551 45.985 18.6451 45.785 18.7851L25.835 32.0851C25.715 32.1651 25.565 32.1651 25.445 32.0851L5.505 18.7951C5.295 18.6551 5.295 18.3451 5.505 18.2051Z" fill="white"/>
<path d="M16.5552 13.7549H20.8952C21.7552 13.7549 22.4452 13.8749 22.9652 14.1049C23.4852 14.3349 23.9252 14.6749 24.2752 15.1049C24.6252 15.5349 24.8652 16.0449 25.0252 16.6149C25.1852 17.1849 25.2552 17.8049 25.2552 18.4449C25.2552 19.4549 25.1452 20.2349 24.9152 20.7949C24.6852 21.3549 24.3652 21.8149 23.9552 22.1949C23.5452 22.5749 23.1052 22.8249 22.6452 22.9449C22.0052 23.1149 21.4252 23.2049 20.9052 23.2049H16.5652V13.7549H16.5552ZM19.4752 15.8949V21.0549H20.1952C20.8052 21.0549 21.2352 20.9849 21.4952 20.8549C21.7552 20.7249 21.9552 20.4849 22.1052 20.1449C22.2552 19.8049 22.3252 19.2649 22.3252 18.5049C22.3252 17.5049 22.1652 16.8149 21.8352 16.4449C21.5052 16.0749 20.9652 15.8949 20.2152 15.8949H19.4852H19.4752Z" fill="white"/>
<path d="M26.4951 13.7549H35.3751V16.0849H32.3951V23.2049H29.4751V16.0849H26.4951V13.7549Z" fill="white"/>
<path d="M71.1248 18.545L68.3048 18.615L68.5648 19.075L68.5248 19.295L66.8748 20.705L66.6748 20.685C66.4348 20.135 66.1948 19.625 65.9048 19.105V20.185L66.0548 28.415H63.0448L63.2448 20.255C62.9348 21.265 62.5648 22.215 62.1048 23.185C62.0348 23.315 61.9548 23.385 61.8448 23.385C61.7348 23.385 61.6048 23.295 61.5148 23.145L60.1748 20.945C61.1848 19.225 62.2848 17.095 63.0748 14.145L60.6948 14.215L60.5448 14.085V11.685L60.6748 11.555L63.1848 11.625V7.47497L63.2948 7.34497H65.7848L65.9148 7.47497V11.565L67.7848 11.525L67.8948 11.635V14.015C68.7748 12.455 69.3648 10.915 69.9448 8.71497L70.1248 8.60497L72.5248 9.46497L72.6148 9.68497C72.4848 10.125 72.3548 10.565 72.2148 10.985H73.1648V7.50497L73.2748 7.37497H76.0248L76.1548 7.50497V10.985H77.7648L80.6648 10.915L80.7948 11.025V13.465L80.6648 13.575L77.7648 13.505H76.1548V16.015H78.4848L81.3848 15.945L81.5148 16.055V18.495L81.3848 18.605L78.4848 18.535H76.5048C78.0048 20.805 79.6248 22.515 81.9148 24.235L80.1148 26.545C79.9848 26.725 79.8748 26.805 79.7848 26.805C79.6948 26.805 79.5848 26.735 79.4748 26.625C78.1148 25.195 77.0148 23.805 76.1048 22.135L76.3048 28.315H73.0048L73.1848 22.395C72.0648 24.065 70.5648 25.545 68.8048 26.905C68.6548 27.015 68.5648 27.085 68.4948 27.085C68.4048 27.085 68.3148 26.995 68.1848 26.865L66.3548 25.035C69.0348 23.165 70.6648 21.475 72.6248 18.525H71.1248V18.545ZM73.1448 13.505H71.2748C70.9648 14.205 70.6348 14.895 70.2648 15.575C70.1948 15.685 70.1348 15.725 70.0248 15.725C69.9348 15.725 69.8248 15.685 69.6948 15.615L67.6248 14.475C67.6948 14.365 67.7548 14.275 67.8048 14.185L65.9148 14.145V16.655L66.4448 16.305H66.6648C67.1948 16.925 67.6548 17.555 68.0948 18.265V16.085L68.2248 15.955L71.1248 16.025H73.1448V13.515V13.505Z" fill="white"/>
<path d="M102.435 11.0849C101.845 10.2949 101.225 9.63488 100.525 9.06488V8.86488L102.285 7.52488L102.505 7.50488C103.385 8.09488 104.085 8.73488 104.775 9.57488L104.735 9.81488L103.125 11.0949L106.005 11.0249L106.135 11.1349V13.7049L106.005 13.8149L102.905 13.7449H100.155C100.375 17.4149 100.835 19.9749 101.735 22.1249C102.525 24.0349 103.095 24.6749 103.365 24.6749C103.635 24.6749 103.845 24.2349 104.175 21.8349L106.115 23.4149C106.335 23.5949 106.425 23.7249 106.405 23.9849C106.075 26.9349 104.955 28.2049 103.435 28.2049C102.025 28.2049 100.575 27.2849 99.0547 23.9349C97.9547 21.5349 97.2747 18.1749 96.9847 13.7249H88.7147L85.5047 13.7949L85.3547 13.6649V11.1349L85.4847 11.0049L88.7147 11.0749H96.8547C96.8347 9.99488 96.8147 8.87488 96.8147 7.68488L96.9447 7.50488H99.8747L100.025 7.65488C100.025 8.88488 100.045 10.0049 100.065 11.0649H102.445L102.435 11.0849ZM92.9247 23.4049C94.4847 23.1649 95.9647 22.8749 97.2347 22.6149L97.1947 24.6849C97.1947 25.0849 97.0447 25.2349 96.6647 25.3249C93.9147 26.0249 90.5747 26.7149 86.5847 27.3949L86.4047 27.2649L85.3447 24.6949L85.4747 24.5149C86.8647 24.3349 88.3147 24.1449 89.7647 23.9249V18.9249H89.2147L86.4647 18.9949L86.3147 18.8649V16.4049L86.4447 16.2749L89.2147 16.3449H93.3547L96.1947 16.2749L96.3247 16.3849V18.8949L96.1947 19.0049L93.3547 18.9349H92.9147V23.4249L92.9247 23.4049Z" fill="white"/>
<path d="M124.895 17.0848L124.765 17.1948L122.305 17.1248H117.135L114.695 17.1948L114.545 17.0648V15.7448C113.755 16.3348 112.895 16.8848 111.995 17.4348C111.775 17.5648 111.595 17.6348 111.465 17.6348C111.335 17.6348 111.225 17.5948 111.115 17.4848L108.955 15.3548C112.825 13.3548 115.845 10.7748 118.135 7.21478L118.375 7.14478L121.525 7.93478L121.595 8.15478C121.465 8.35478 121.335 8.52478 121.225 8.72478C123.775 11.1048 126.305 13.0848 130.575 14.6848L128.505 17.0348C128.265 17.3248 128.065 17.4348 127.885 17.4348C127.755 17.4348 127.645 17.3948 127.485 17.3048C126.585 16.7948 125.725 16.2748 124.915 15.7248V17.0848H124.895ZM119.265 21.3748C118.695 22.6048 118.035 23.7948 117.305 24.9348C119.265 24.8648 121.225 24.7148 123.185 24.5648C122.595 23.9948 121.995 23.4648 121.355 22.9548L121.395 22.7548L123.555 21.5048L123.755 21.4848C125.645 22.8748 127.425 24.5648 128.925 26.2848L128.905 26.4648L126.665 28.3348L126.445 28.3148C126.075 27.8048 125.695 27.3248 125.305 26.8648C120.505 27.4148 116.685 27.7248 111.485 28.0548L111.285 27.9448L110.385 25.3448L110.535 25.1448C111.765 25.1248 112.865 25.1048 113.925 25.0748C114.605 23.8848 115.265 22.6548 115.775 21.3748H113.725L110.185 21.4448L110.035 21.3148V18.7648L110.165 18.6348L113.725 18.7048H125.715L129.275 18.6348L129.405 18.7448V21.3448L129.275 21.4548L125.715 21.3848H119.265V21.3748ZM123.185 14.4448C121.885 13.3648 120.655 12.2248 119.535 10.9648C118.545 12.2148 117.405 13.4048 116.165 14.4448L117.135 14.4648H122.305L123.185 14.4448Z" fill="white"/>
<path d="M139.895 17.5549L140.155 17.5749C140.925 18.1049 142.155 19.1149 142.835 19.9049L142.815 20.1249L140.965 21.9749L140.675 21.9549C140.255 21.3649 139.725 20.6749 139.135 20.0649V23.0149L139.245 28.4249H136.055L136.165 23.0149V20.8849C135.765 21.2849 135.355 21.6549 134.935 21.9849C134.785 22.0949 134.675 22.1649 134.565 22.1649C134.455 22.1649 134.345 22.0949 134.255 21.9649L132.785 19.7849C135.005 18.1749 137.405 15.6749 138.375 13.4049H136.245L133.565 13.4449L133.435 13.2649V10.7149L133.565 10.5849L136.185 10.6549V7.46494L136.335 7.31494H139.015L139.145 7.49494V10.6649H139.495L140.835 10.5949L142.005 11.7149C142.075 11.7849 142.155 11.9349 142.155 12.1149C142.155 12.2249 142.135 12.3149 142.085 12.4249C141.315 14.4749 140.235 16.1849 139.135 17.6649V18.3249L139.885 17.5749L139.895 17.5549ZM149.975 14.3449L152.875 14.2749L153.005 14.3849V17.0249L152.875 17.1349L149.975 17.0649H148.695V24.7249H150.825L153.505 24.6549L153.635 24.7649V27.3649L153.485 27.5149L150.825 27.4449H143.515L140.635 27.5149L140.485 27.3849V24.7649L140.615 24.6549L143.515 24.7249H145.565V17.0649H144.595L141.715 17.1349L141.565 17.0049V14.4049L141.695 14.2749L144.595 14.3449H145.565V7.71494L145.715 7.53494H148.535L148.685 7.68494V14.3349H149.965L149.975 14.3449Z" fill="white"/>
<path d="M175.745 12.9549C175.905 13.1349 175.995 13.2349 175.995 13.3649C175.995 13.4549 175.975 13.5749 175.885 13.7549C174.805 16.1049 173.585 18.1949 172.255 20.0049C172.995 20.6249 173.725 21.2949 174.435 22.0249V22.2749L172.205 24.7549L171.995 24.7749C171.325 24.0349 170.665 23.3749 169.975 22.7049C167.885 24.8449 165.375 26.6149 162.225 28.2049C162.015 28.3249 161.885 28.3649 161.785 28.3649C161.625 28.3649 161.485 28.2949 161.255 28.1349L158.565 26.2949C162.265 24.7049 165.215 22.7349 167.415 20.5049C166.635 19.9049 165.785 19.3049 164.835 18.7349V18.5049L166.795 16.3649L167.045 16.3449C167.895 16.8549 168.725 17.3549 169.505 17.8849C170.305 16.7549 171.025 15.5149 171.555 14.2749L167.095 14.2949C165.595 16.3649 164.015 18.1349 162.405 19.6049C161.965 19.9249 161.855 19.9049 161.435 19.6249L158.925 18.0149C161.985 15.6449 164.745 12.3149 166.375 8.58488L166.605 8.51488L169.735 9.64488L169.785 9.89488C169.535 10.4049 169.255 10.8849 168.985 11.3649L172.135 11.3149L174.025 11.1749L175.745 12.9249V12.9549ZM173.605 9.32488L174.805 8.47488L175.035 8.45488C175.885 9.16488 176.695 9.97488 177.385 10.8949L177.365 11.1249L176.095 12.0249H175.865C175.155 11.0849 174.505 10.3249 173.585 9.54488L173.605 9.33488V9.32488ZM175.765 7.87488L176.935 7.02488L177.165 7.00488C178.015 7.71488 178.755 8.45488 179.445 9.37488L179.425 9.60488L178.225 10.4749H177.995C177.285 9.53488 176.665 8.86488 175.745 8.08488L175.765 7.87488Z" fill="white"/>
<path d="M188.535 17.855C186.785 19.095 184.975 20.265 182.945 21.445C182.485 21.695 182.365 21.695 181.955 21.355L179.495 19.215C184.895 16.595 189.175 13.745 193.365 8.84497H193.645L196.515 10.845L196.535 11.125C195.065 12.645 193.635 13.955 192.285 15.105V20.415L192.405 27.635H188.425L188.545 20.485V17.865L188.535 17.855Z" fill="white"/>
<path d="M208.685 19.0348L208.805 27.8148H204.805L204.925 18.9848V9.07479L205.105 8.91479H208.505L208.685 9.0948V16.7748L210.665 14.5648L210.895 14.5448C212.805 15.6048 214.225 16.4948 216.065 18.0648L216.045 18.2948L213.815 21.0748L213.585 21.0948C212.045 19.6948 210.525 18.5148 208.685 17.4848V19.0248V19.0348Z" fill="white"/>
<path d="M235.405 20.3449H225.125L221.695 20.4149L221.535 20.2349V16.9449L221.745 16.8049L225.035 16.8749H235.295L238.835 16.8049L239.015 16.9649V20.2349L238.855 20.4149L235.405 20.3449Z" fill="white"/>
</svg>
