<svg width="250" height="37" viewBox="0 0 250 37" fill="none" xmlns="http://www.w3.org/2000/svg">
<path d="M25.0801 1.04506L0.630137 17.3451C-0.189863 17.8951 -0.189863 19.1051 0.630137 19.6551L25.0801 35.9551C25.4301 36.1851 25.8801 36.1851 26.2201 35.9551L51.1101 19.3651C51.7201 18.9551 51.7201 18.0551 51.1101 17.6551L26.2201 1.04506C25.8701 0.815059 25.4201 0.815059 25.0801 1.04506ZM5.52014 18.2051L25.4501 4.92506C25.5701 4.84506 25.7301 4.84506 25.8501 4.92506L45.8001 18.2251C46.0001 18.3551 46.0001 18.6451 45.8001 18.7851L25.8501 32.0851C25.7301 32.1651 25.5801 32.1651 25.4601 32.0851L5.52014 18.7951C5.31014 18.6551 5.31014 18.3451 5.52014 18.2051Z" fill="white"/>
<path d="M16.5703 13.7549H20.9103C21.7703 13.7549 22.4603 13.8749 22.9803 14.1049C23.5003 14.3349 23.9403 14.6749 24.2903 15.1049C24.6403 15.5349 24.8803 16.0449 25.0403 16.6149C25.2003 17.1849 25.2703 17.8049 25.2703 18.4449C25.2703 19.4549 25.1603 20.2349 24.9303 20.7949C24.7003 21.3549 24.3803 21.8149 23.9703 22.1949C23.5603 22.5749 23.1203 22.8249 22.6603 22.9449C22.0203 23.1149 21.4403 23.2049 20.9203 23.2049H16.5803V13.7549H16.5703ZM19.4903 15.8949V21.0549H20.2103C20.8203 21.0549 21.2503 20.9849 21.5103 20.8549C21.7703 20.7249 21.9703 20.4849 22.1203 20.1449C22.2703 19.8049 22.3403 19.2649 22.3403 18.5049C22.3403 17.5049 22.1803 16.8149 21.8503 16.4449C21.5203 16.0749 20.9803 15.8949 20.2303 15.8949H19.5003H19.4903Z" fill="white"/>
<path d="M26.5103 13.7549H35.3903V16.0849H32.4103V23.2049H29.4903V16.0849H26.5103V13.7549Z" fill="white"/>
<path d="M72.2603 15.545C73.9803 20.235 76.9203 23.395 81.2803 25.245L79.0603 27.815C78.9703 27.925 78.8803 27.965 78.8203 27.965C78.7303 27.965 78.6403 27.925 78.5603 27.875C75.0203 26.095 72.2003 22.965 70.7303 19.095C70.4003 20.395 69.8903 21.585 69.2103 22.635C67.6503 25.035 65.5803 26.815 62.8703 28.045C62.7603 28.085 62.6503 28.135 62.5603 28.135C62.4703 28.135 62.4103 28.095 62.3203 28.025L60.0303 25.755C62.9603 24.615 65.2003 22.675 66.3903 20.915C67.2303 19.685 67.9503 18.015 68.2803 15.525H64.5603L60.9103 15.595L60.7603 15.445V12.765L60.9103 12.615L64.5603 12.685H68.4803V7.48496L68.6303 7.33496H71.7803L71.9303 7.48496V12.675H76.6603L80.3103 12.605L80.4603 12.755V15.435L80.3103 15.585L76.6603 15.515H72.2603V15.545Z" fill="white"/>
<path d="M96.5901 28.1249H93.1101L93.2901 23.3449C91.2701 25.3249 88.8001 26.7549 86.5101 27.6349C86.4001 27.6749 86.3101 27.7049 86.2501 27.7049C86.1401 27.7049 86.0701 27.6349 85.9901 27.5249L84.1401 25.1249C87.0701 24.2249 89.3801 23.0549 91.4701 21.2049H90.4601L87.3801 21.2749L87.2301 21.1249L87.3001 18.0449V15.0749L87.2301 12.6749L87.3801 12.5449L90.5701 12.6149H93.2301V11.6249H88.3201L84.6701 11.6949L84.5201 11.5449V9.12489L84.7201 9.01489L88.3301 9.08489H93.2401V7.14489L93.3501 7.01489H96.3601L96.4901 7.14489V9.08489H101.59L105.24 9.01489L105.39 9.16489V11.5449L105.24 11.6949L101.59 11.6249H96.4901V12.6149H99.5501L102.59 12.5449L102.77 12.7249L102.7 15.1849V17.9349L102.77 21.1249L102.57 21.2749L99.7801 21.2049H98.2201C100.31 22.8949 102.8 24.0649 105.79 24.8749L103.79 27.5349C103.72 27.6449 103.64 27.6849 103.48 27.6849C103.41 27.6849 103.33 27.6849 103.22 27.6449C100.05 26.4149 98.2201 25.0449 96.4401 23.1749L96.6201 28.1049L96.5901 28.1249ZM93.2901 14.8549H90.3001V15.8849H93.2901V14.8549ZM90.3001 17.9349V18.9649H93.2901V17.9349H90.3001ZM99.5601 15.8849V14.8549H96.4101V15.8849H99.5601ZM96.4101 18.9649H99.5601V17.9349H96.4101V18.9649Z" fill="white"/>
<path d="M119.93 18.0251H123.45L126.57 17.9551L126.7 18.0651V20.5251L126.57 20.6351L123.45 20.5651H119.93V24.5951H122.55L120.94 23.9351C121.69 22.6551 122.02 21.8851 122.48 20.7651L122.68 20.6551L125.41 21.6451L125.48 21.8851C124.89 22.9451 124.27 23.8651 123.7 24.5951H125.39L128.29 24.5251L128.42 24.6351V27.1251L128.29 27.2351L125.39 27.1651H111.62L108.74 27.2351L108.59 27.1051V24.6651L108.72 24.5351L111.62 24.6051H113.03C112.74 23.8351 112.3 22.7751 111.75 21.8751L111.82 21.6751L114.13 20.8151L114.37 20.9051C114.92 21.6551 115.45 22.6851 115.84 23.5651L115.77 23.7851L113.72 24.5951H116.8V20.5651H113.43L110.33 20.6351L110.18 20.5051V18.0851L110.31 17.9551L113.43 18.0251H116.8V16.4851H116.1L113.66 16.5551L113.51 16.4251V15.4151C112.59 16.0551 111.62 16.6651 110.58 17.2451C110.4 17.3351 110.27 17.3751 110.16 17.3751C110.03 17.3751 109.92 17.3051 109.79 17.1751L107.81 15.1951C111.95 13.1951 114.89 10.7251 117.01 7.03509L117.25 6.96509L120.37 7.80509L120.44 8.02509C120.33 8.20509 120.22 8.37509 120.09 8.55509C122.51 11.0651 125.46 13.1551 129.33 14.4351L127.42 16.6551C127.18 16.9451 126.98 17.0751 126.78 17.0751C126.67 17.0751 126.56 17.0351 126.43 16.9651C125.42 16.4151 124.43 15.8451 123.44 15.2251V16.4551L123.31 16.5651L120.85 16.4951H119.95V18.0351L119.93 18.0251ZM121.6 13.9351C120.41 13.0351 119.36 12.0251 118.37 10.8951C117.49 11.9951 116.48 13.0251 115.4 13.9351L116.1 13.9551H120.83L121.6 13.9351Z" fill="white"/>
<path d="M136.98 15.7849C136.98 20.9749 136.21 24.3249 134.16 27.4049C134.09 27.4949 134.03 27.5349 133.96 27.5349C133.89 27.5349 133.83 27.4949 133.74 27.4049L131.69 25.4649C133.32 23.0649 134.02 20.2249 134.02 15.7449V11.2949L133.95 7.9249L134.1 7.7749L137.75 7.8449H147.39L151.04 7.7749L151.19 7.9249L151.12 9.9749V10.7249L151.16 12.9449L151.01 13.0949L147.38 13.0249H136.95V15.7749L136.98 15.7849ZM142.81 23.3749H139.73V28.1049H136.76L136.87 25.1349V23.5949L136.8 21.5449L136.95 21.3949L140.6 21.4649H142.8V20.6749H140.47L138.05 20.7449L137.9 20.5649L138.01 18.7849V18.0549L137.94 16.4249L138.09 16.2749L140.47 16.3449H142.8V15.6849C141.5 15.7549 140.18 15.7949 138.86 15.8349C138.57 15.8349 138.44 15.8149 138.35 15.6549L137.29 13.8049C141.76 13.8049 146.18 13.6249 148.89 13.1049L149.11 13.1249C149.86 13.6349 150.39 14.0449 151.09 14.7049L151.02 14.9249C149.24 15.1849 147.37 15.3649 145.45 15.5149V16.3249H148L150.42 16.2549L150.57 16.4049L150.5 18.0349V18.8249L150.57 20.5149L150.39 20.7149L147.99 20.6449H145.44V21.4349H148.17L151.82 21.3649L151.97 21.5149L151.9 23.4049V24.1949L151.97 25.7549C151.97 27.3849 151.31 28.0449 148.89 28.0449C148.54 28.0449 148.41 28.0049 148.32 27.7849L147.64 26.2449L147.24 26.4249L147.04 26.3549C147 26.1749 146.93 26.0049 146.89 25.8449C144.78 26.1949 142.78 26.4349 140.75 26.6349L140.55 26.5649L139.93 24.6049L140.06 24.4749C140.94 24.4549 141.84 24.4349 142.77 24.3849V23.3249L142.81 23.3749ZM148.11 10.8349V10.0649H136.98V10.8349H148.11ZM140.74 17.9849V18.9749H142.81V17.9849H140.74ZM145.43 24.2949C145.72 24.2749 146.02 24.2549 146.31 24.2249L146.18 23.8949L146.22 23.7149L147.23 23.3649H145.43V24.2849V24.2949ZM145.47 18.9749H147.71V17.9849H145.47V18.9749ZM147.69 23.3749C148.09 24.0149 148.44 24.7649 148.77 25.6449L148.68 25.8249L148.13 26.0649C148.28 26.0649 148.46 26.0449 148.64 26.0249C148.99 25.9849 149.08 25.8949 149.08 25.4349V23.3849H147.69V23.3749Z" fill="white"/>
<path d="M167.08 18.2449L164.26 18.3149L164.52 18.7749L164.48 18.9949L162.83 20.4049L162.63 20.3849C162.39 19.8349 162.15 19.3249 161.86 18.8049V19.8849L162.01 28.1149H159L159.2 19.9549C158.89 20.9649 158.52 21.9149 158.06 22.8849C157.99 23.0149 157.91 23.0849 157.8 23.0849C157.69 23.0849 157.56 22.9949 157.47 22.8449L156.13 20.6449C157.14 18.9249 158.24 16.7949 159.03 13.8449L156.65 13.9149L156.5 13.7849V11.3849L156.63 11.2549L159.14 11.3249V7.17492L159.25 7.04492H161.74L161.87 7.17492V11.2649L163.74 11.2249L163.85 11.3349V13.7149C164.73 12.1549 165.32 10.6149 165.9 8.41492L166.08 8.30492L168.48 9.16492L168.57 9.38492C168.44 9.82492 168.31 10.2649 168.17 10.6849H169.12V7.20492L169.23 7.07492H171.98L172.11 7.20492V10.6849H173.72L176.62 10.6149L176.75 10.7249V13.1649L176.62 13.2749L173.72 13.2049H172.11V15.7149H174.44L177.34 15.6449L177.47 15.7549V18.1949L177.34 18.3049L174.44 18.2349H172.46C173.96 20.5049 175.58 22.2149 177.87 23.9349L176.07 26.2449C175.94 26.4249 175.83 26.5049 175.74 26.5049C175.65 26.5049 175.54 26.4349 175.43 26.3249C174.07 24.8949 172.97 23.5049 172.06 21.8349L172.26 28.0149H168.96L169.14 22.0949C168.02 23.7649 166.52 25.2449 164.76 26.6049C164.61 26.7149 164.52 26.7849 164.45 26.7849C164.36 26.7849 164.27 26.6949 164.14 26.5649L162.31 24.7349C164.99 22.8649 166.62 21.1749 168.58 18.2249H167.08V18.2449ZM169.1 13.2049H167.23C166.92 13.9049 166.59 14.5949 166.22 15.2749C166.15 15.3849 166.09 15.4249 165.98 15.4249C165.89 15.4249 165.78 15.3849 165.65 15.3149L163.58 14.1749C163.65 14.0649 163.71 13.9749 163.76 13.8849L161.87 13.8449V16.3549L162.4 16.0049H162.62C163.15 16.6249 163.61 17.2549 164.05 17.9649V15.7849L164.18 15.6549L167.08 15.7249H169.1V13.2149V13.2049Z" fill="white"/>
<path d="M198.39 10.7851C197.8 9.99508 197.18 9.33508 196.48 8.76508V8.56508L198.24 7.22508L198.46 7.20508C199.34 7.79508 200.04 8.43508 200.73 9.27508L200.69 9.51508L199.08 10.7951L201.96 10.7251L202.09 10.8351V13.4051L201.96 13.5151L198.86 13.4451H196.11C196.33 17.1151 196.79 19.6751 197.69 21.8251C198.48 23.7351 199.05 24.3751 199.32 24.3751C199.59 24.3751 199.8 23.9351 200.13 21.5351L202.07 23.1151C202.29 23.2951 202.38 23.4251 202.36 23.6851C202.03 26.6351 200.91 27.9051 199.39 27.9051C197.98 27.9051 196.53 26.9851 195.01 23.6351C193.91 21.2351 193.23 17.8751 192.94 13.4251H184.67L181.46 13.4951L181.31 13.3651V10.8351L181.44 10.7051L184.67 10.7751H192.81C192.79 9.69508 192.77 8.57508 192.77 7.38508L192.9 7.20508H195.83L195.98 7.35508C195.98 8.58508 196 9.70508 196.02 10.7651H198.4L198.39 10.7851ZM188.88 23.1051C190.44 22.8651 191.92 22.5751 193.19 22.3151L193.15 24.3851C193.15 24.7851 193 24.9351 192.62 25.0251C189.87 25.7251 186.52 26.4151 182.54 27.0951L182.36 26.9651L181.3 24.3851L181.43 24.2051C182.82 24.0251 184.27 23.8351 185.72 23.6151V18.6151H185.17L182.42 18.6851L182.27 18.5551V16.0951L182.4 15.9651L185.17 16.0351H189.31L192.15 15.9651L192.28 16.0751V18.5851L192.15 18.6951L189.31 18.6251H188.87V23.1151L188.88 23.1051Z" fill="white"/>
<path d="M220.85 16.795L220.72 16.905L218.26 16.835H213.09L210.65 16.905L210.5 16.775V15.455C209.71 16.045 208.85 16.595 207.95 17.145C207.73 17.275 207.55 17.345 207.42 17.345C207.29 17.345 207.18 17.305 207.07 17.195L204.91 15.065C208.78 13.065 211.8 10.485 214.08 6.92498L214.32 6.85498L217.47 7.64498L217.54 7.86498C217.41 8.06498 217.28 8.23498 217.17 8.43498C219.72 10.815 222.25 12.795 226.52 14.395L224.45 16.745C224.21 17.035 224.01 17.145 223.83 17.145C223.7 17.145 223.59 17.105 223.43 17.015C222.53 16.505 221.67 15.985 220.86 15.435V16.795H220.85ZM215.22 21.085C214.65 22.315 213.99 23.505 213.26 24.645C215.22 24.575 217.18 24.425 219.14 24.275C218.55 23.705 217.95 23.175 217.31 22.665L217.35 22.465L219.51 21.215L219.71 21.195C221.6 22.585 223.38 24.275 224.88 25.995L224.86 26.175L222.61 28.045L222.39 28.025C222.02 27.515 221.64 27.035 221.25 26.575C216.45 27.125 212.62 27.435 207.43 27.765L207.23 27.655L206.33 25.055L206.48 24.855C207.71 24.835 208.81 24.815 209.87 24.785C210.55 23.595 211.21 22.365 211.72 21.085H209.67L206.13 21.155L205.98 21.025V18.475L206.11 18.345L209.67 18.415H221.66L225.22 18.345L225.35 18.455V21.055L225.22 21.165L221.66 21.095H215.21L215.22 21.085ZM219.14 14.155C217.84 13.075 216.61 11.935 215.49 10.675C214.5 11.925 213.36 13.115 212.12 14.155L213.09 14.175H218.26L219.14 14.155Z" fill="white"/>
<path d="M235.85 17.2549L236.11 17.2749C236.88 17.8049 238.11 18.8149 238.79 19.6049L238.77 19.8249L236.92 21.6749L236.63 21.6549C236.21 21.0649 235.68 20.3749 235.09 19.7649V22.7149L235.2 28.1249H232.01L232.12 22.7149V20.5849C231.72 20.9849 231.31 21.3549 230.89 21.6849C230.74 21.7949 230.63 21.8649 230.51 21.8649C230.39 21.8649 230.29 21.7949 230.2 21.6649L228.73 19.4849C230.95 17.8749 233.35 15.3749 234.32 13.1049H232.19L229.51 13.1449L229.38 12.9649V10.4149L229.51 10.2849L232.13 10.3549V7.16489L232.28 7.01489H234.96L235.09 7.19489V10.3649H235.44L236.78 10.2949L237.95 11.4149C238.02 11.4849 238.1 11.6349 238.1 11.8149C238.1 11.9249 238.08 12.0149 238.03 12.1249C237.26 14.1749 236.18 15.8849 235.08 17.3649V18.0249L235.83 17.2749L235.85 17.2549ZM245.93 14.0449L248.83 13.9749L248.96 14.0849V16.7249L248.83 16.8349L245.93 16.7649H244.65V24.4249H246.78L249.46 24.3549L249.59 24.4649V27.0649L249.44 27.2149L246.78 27.1449H239.48L236.6 27.2149L236.45 27.0849V24.4649L236.58 24.3549L239.48 24.4249H241.53V16.7649H240.56L237.68 16.8349L237.53 16.7049V14.1049L237.66 13.9749L240.56 14.0449H241.53V7.42489L241.68 7.24489H244.5L244.65 7.39489V14.0449H245.93Z" fill="white"/>
</svg>
