<svg width="263" height="36" viewBox="0 0 263 36" fill="none" xmlns="http://www.w3.org/2000/svg">
<path d="M25.065 0.545059L0.615 16.8451C-0.205 17.3951 -0.205 18.6051 0.615 19.1551L25.065 35.4551C25.415 35.6851 25.865 35.6851 26.205 35.4551L51.095 18.8651C51.705 18.4551 51.705 17.5551 51.095 17.1551L26.205 0.545059C25.855 0.315059 25.405 0.315059 25.065 0.545059ZM5.505 17.7051L25.435 4.42506C25.555 4.34506 25.715 4.34506 25.835 4.42506L45.785 17.7251C45.985 17.8551 45.985 18.1451 45.785 18.2851L25.835 31.5851C25.715 31.6651 25.565 31.6651 25.445 31.5851L5.505 18.2951C5.295 18.1551 5.295 17.8451 5.505 17.7051Z" fill="white"/>
<path d="M16.5552 13.2549H20.8952C21.7552 13.2549 22.4452 13.3749 22.9652 13.6049C23.4852 13.8349 23.9252 14.1749 24.2752 14.6049C24.6252 15.0349 24.8652 15.5449 25.0252 16.1149C25.1852 16.6849 25.2552 17.3049 25.2552 17.9449C25.2552 18.9549 25.1452 19.7349 24.9152 20.2949C24.6852 20.8549 24.3652 21.3149 23.9552 21.6949C23.5452 22.0749 23.1052 22.3249 22.6452 22.4449C22.0052 22.6149 21.4252 22.7049 20.9052 22.7049H16.5652V13.2549H16.5552ZM19.4752 15.3949V20.5549H20.1952C20.8052 20.5549 21.2352 20.4849 21.4952 20.3549C21.7552 20.2249 21.9552 19.9849 22.1052 19.6449C22.2552 19.3049 22.3252 18.7649 22.3252 18.0049C22.3252 17.0049 22.1652 16.3149 21.8352 15.9449C21.5052 15.5749 20.9652 15.3949 20.2152 15.3949H19.4852H19.4752Z" fill="white"/>
<path d="M26.4951 13.2549H35.3751V15.5849H32.3951V22.7049H29.4751V15.5849H26.4951V13.2549Z" fill="white"/>
<path d="M183.245 15.0452C184.965 19.7352 187.905 22.8952 192.265 24.7452L190.045 27.3152C189.955 27.4252 189.865 27.4652 189.805 27.4652C189.715 27.4652 189.625 27.4252 189.545 27.3752C186.005 25.5952 183.185 22.4652 181.715 18.5952C181.385 19.8952 180.875 21.0852 180.195 22.1352C178.635 24.5352 176.565 26.3152 173.855 27.5452C173.745 27.5852 173.635 27.6352 173.545 27.6352C173.455 27.6352 173.395 27.5952 173.305 27.5252L171.015 25.2552C173.945 24.1152 176.185 22.1752 177.375 20.4152C178.215 19.1852 178.935 17.5152 179.265 15.0252H175.545L171.895 15.0952L171.745 14.9452V12.2652L171.895 12.1152L175.545 12.1852H179.465V6.98521L179.615 6.83521H182.765L182.915 6.98521V12.1752H187.645L191.295 12.1052L191.445 12.2552V14.9352L191.295 15.0852L187.645 15.0152H183.245V15.0452Z" fill="white"/>
<path d="M207.575 27.6251H204.095L204.275 22.8451C202.255 24.8251 199.785 26.2551 197.495 27.1351C197.385 27.1751 197.295 27.2051 197.235 27.2051C197.125 27.2051 197.055 27.1351 196.975 27.0251L195.125 24.6251C198.055 23.7251 200.365 22.5551 202.455 20.7051H201.445L198.365 20.7751L198.215 20.6251L198.285 17.5451V14.5751L198.215 12.1751L198.365 12.0451L201.555 12.1151H204.215V11.1251H199.305L195.655 11.1951L195.505 11.0451V8.62514L195.705 8.51514L199.315 8.58514H204.225V6.64514L204.335 6.51514H207.345L207.475 6.64514V8.58514H212.575L216.225 8.51514L216.375 8.66514V11.0451L216.225 11.1951L212.575 11.1251H207.475V12.1151H210.535L213.575 12.0451L213.755 12.2251L213.685 14.6851V17.4351L213.755 20.6251L213.555 20.7751L210.765 20.7051H209.205C211.295 22.3951 213.785 23.5651 216.775 24.3751L214.775 27.0351C214.705 27.1451 214.625 27.1851 214.465 27.1851C214.395 27.1851 214.315 27.1851 214.205 27.1451C211.035 25.9151 209.205 24.5451 207.425 22.6751L207.605 27.6051L207.575 27.6251ZM204.275 14.3551H201.285V15.3851H204.275V14.3551ZM201.285 17.4351V18.4651H204.275V17.4351H201.285ZM210.545 15.3851V14.3551H207.395V15.3851H210.545ZM207.395 18.4651H210.545V17.4351H207.395V18.4651Z" fill="white"/>
<path d="M230.915 17.5251H234.435L237.555 17.4551L237.685 17.5651V20.0251L237.555 20.1351L234.435 20.0651H230.915V24.0951H233.535L231.925 23.4351C232.675 22.1551 233.005 21.3851 233.465 20.2651L233.665 20.1551L236.395 21.1451L236.465 21.3851C235.875 22.4451 235.255 23.3651 234.685 24.0951H236.375L239.275 24.0251L239.405 24.1351V26.6251L239.275 26.7351L236.375 26.6651H222.605L219.725 26.7351L219.575 26.6051V24.1651L219.705 24.0351L222.605 24.1051H224.015C223.725 23.3351 223.285 22.2751 222.735 21.3751L222.805 21.1751L225.115 20.3151L225.355 20.4051C225.905 21.1551 226.435 22.1851 226.825 23.0651L226.755 23.2851L224.705 24.0951H227.785V20.0651H224.415L221.315 20.1351L221.165 20.0051V17.5851L221.295 17.4551L224.415 17.5251H227.785V15.9851H227.085L224.645 16.0551L224.495 15.9251V14.9151C223.575 15.5551 222.605 16.1651 221.565 16.7451C221.385 16.8351 221.255 16.8751 221.145 16.8751C221.015 16.8751 220.905 16.8051 220.775 16.6751L218.795 14.6951C222.935 12.6951 225.875 10.2251 227.995 6.53509L228.235 6.46509L231.355 7.30509L231.425 7.52509C231.315 7.70509 231.205 7.87509 231.075 8.05509C233.495 10.5651 236.445 12.6551 240.315 13.9351L238.405 16.1551C238.165 16.4451 237.965 16.5751 237.765 16.5751C237.655 16.5751 237.545 16.5351 237.415 16.4651C236.405 15.9151 235.415 15.3451 234.425 14.7251V15.9551L234.295 16.0651L231.835 15.9951H230.935V17.5351L230.915 17.5251ZM232.585 13.4351C231.395 12.5351 230.345 11.5251 229.355 10.3951C228.475 11.4951 227.465 12.5251 226.385 13.4351L227.085 13.4551H231.815L232.585 13.4351Z" fill="white"/>
<path d="M247.965 15.2851C247.965 20.4751 247.195 23.8251 245.145 26.9051C245.075 26.9951 245.015 27.0351 244.945 27.0351C244.875 27.0351 244.815 26.9951 244.725 26.9051L242.675 24.9651C244.305 22.5651 245.005 19.7251 245.005 15.2451V10.7951L244.935 7.42515L245.085 7.27515L248.735 7.34515H258.375L262.025 7.27515L262.175 7.42515L262.105 9.47515V10.2251L262.145 12.4451L261.995 12.5951L258.365 12.5251H247.935V15.2751L247.965 15.2851ZM253.795 22.8751H250.715V27.6051H247.745L247.855 24.6351V23.0951L247.785 21.0451L247.935 20.8951L251.585 20.9651H253.785V20.1751H251.455L249.035 20.2451L248.885 20.0651L248.995 18.2851V17.5551L248.925 15.9251L249.075 15.7751L251.455 15.8451H253.785V15.1851C252.485 15.2551 251.165 15.2951 249.845 15.3351C249.555 15.3351 249.425 15.3151 249.335 15.1551L248.275 13.3051C252.745 13.3051 257.165 13.1251 259.875 12.6051L260.095 12.6251C260.845 13.1351 261.375 13.5451 262.075 14.2051L262.005 14.4251C260.225 14.6851 258.355 14.8651 256.435 15.0151V15.8251H258.985L261.405 15.7551L261.555 15.9051L261.485 17.5351V18.3251L261.555 20.0151L261.375 20.2151L258.975 20.1451H256.425V20.9351H259.155L262.805 20.8651L262.955 21.0151L262.885 22.9051V23.6951L262.955 25.2551C262.955 26.8851 262.295 27.5451 259.875 27.5451C259.525 27.5451 259.395 27.5051 259.305 27.2851L258.625 25.7451L258.225 25.9251L258.025 25.8551C257.985 25.6751 257.915 25.5051 257.875 25.3451C255.765 25.6951 253.765 25.9351 251.735 26.1351L251.535 26.0651L250.915 24.1051L251.045 23.9751C251.925 23.9551 252.825 23.9351 253.755 23.8851V22.8251L253.795 22.8751ZM259.095 10.3351V9.56515H247.965V10.3351H259.095ZM251.725 17.4851V18.4751H253.795V17.4851H251.725ZM256.415 23.7951C256.705 23.7751 257.005 23.7551 257.295 23.7251L257.165 23.3951L257.205 23.2151L258.215 22.8651H256.415V23.7851V23.7951ZM256.455 18.4751H258.695V17.4851H256.455V18.4751ZM258.675 22.8751C259.075 23.5151 259.425 24.2651 259.755 25.1451L259.665 25.3251L259.115 25.5651C259.265 25.5651 259.445 25.5451 259.625 25.5251C259.975 25.4851 260.065 25.3951 260.065 24.9351V22.8851H258.675V22.8751Z" fill="white"/>
<path d="M79.2552 12.315C79.4152 12.495 79.5052 12.595 79.5052 12.725C79.5052 12.815 79.4852 12.935 79.3852 13.115C78.3052 15.465 77.0852 17.555 75.7552 19.365C76.4952 19.985 77.2252 20.655 77.9352 21.385V21.635L75.7052 24.115L75.4952 24.135C74.8252 23.395 74.1652 22.735 73.4752 22.065C71.3852 24.205 68.8752 25.975 65.7252 27.565C65.5152 27.685 65.3852 27.725 65.2852 27.725C65.1252 27.725 64.9852 27.655 64.7552 27.495L62.0652 25.655C65.7652 24.065 68.7152 22.095 70.9152 19.865C70.1352 19.265 69.2852 18.665 68.3352 18.095V17.865L70.2852 15.725L70.5352 15.705C71.3852 16.215 72.2152 16.715 72.9952 17.245C73.7952 16.115 74.5152 14.875 75.0452 13.635L70.5852 13.655C69.0952 15.725 67.5052 17.495 65.8952 18.965C65.4552 19.285 65.3452 19.265 64.9252 18.985L62.4152 17.375C65.4752 15.005 68.2352 11.675 69.8652 7.94499L70.0952 7.87499L73.2252 9.00499L73.2752 9.25499C73.0252 9.76499 72.7452 10.245 72.4752 10.725L75.6252 10.675L77.5152 10.535L79.2352 12.285L79.2552 12.315ZM77.1152 8.68499L78.3152 7.83499L78.5452 7.81499C79.3952 8.52499 80.2052 9.33499 80.8952 10.255L80.8752 10.485L79.6152 11.385H79.3852C78.6752 10.445 78.0252 9.68499 77.1052 8.90499L77.1252 8.69499L77.1152 8.68499ZM79.2752 7.23499L80.4452 6.38499L80.6752 6.36499C81.5252 7.07499 82.2652 7.81499 82.9552 8.73499L82.9352 8.96499L81.7352 9.83499H81.5052C80.7952 8.89499 80.1752 8.22499 79.2552 7.44499L79.2752 7.23499Z" fill="white"/>
<path d="M92.0451 17.2151C90.2951 18.4551 88.4851 19.6251 86.4551 20.8051C85.9951 21.0551 85.8751 21.0551 85.4651 20.7151L83.0051 18.5751C88.4051 15.9551 92.6851 13.1051 96.8751 8.20508H97.1551L100.025 10.2051L100.045 10.4851C98.5751 12.0051 97.1451 13.3151 95.7951 14.4651V19.7751L95.9051 26.9951H91.9251L92.0351 19.8451V17.2251L92.0451 17.2151Z" fill="white"/>
<path d="M112.195 18.3849L112.305 27.1649H108.305L108.415 18.3349V8.4349L108.595 8.2749H111.995L112.175 8.4549V16.1349L114.155 13.9249L114.385 13.9049C116.295 14.9649 117.715 15.8549 119.555 17.4249L119.535 17.6549L117.305 20.4349L117.075 20.4549C115.535 19.0549 114.015 17.8749 112.175 16.8449V18.3849H112.195Z" fill="white"/>
<path d="M138.925 19.695H128.645L125.215 19.765L125.055 19.585V16.295L125.265 16.155L128.555 16.225H138.815L142.355 16.155L142.535 16.315V19.585L142.375 19.765L138.925 19.695Z" fill="white"/>
<path opacity="0.65" d="M158.485 2.78491H155.935V31.6949H158.485V2.78491Z" fill="white"/>
</svg>
