<svg width="1155" height="120" viewBox="0 0 1155 120" fill="none" xmlns="http://www.w3.org/2000/svg">
<path d="M29.6196 46.0002H52.5596V62.3682H29.6196V46.0002ZM64.4636 23.1842C62.3556 26.5322 59.8756 30.0042 57.3956 32.9802H30.2396C33.5876 29.8802 36.6876 26.5322 39.5396 23.1842H64.4636ZM91.9916 62.3682H66.8196V46.0002H91.9916V62.3682ZM86.6596 104.528C82.3196 104.528 81.5756 103.908 81.5756 100.064V75.5122H107.74V32.9802H75.0036C79.0956 27.6482 83.0636 21.9442 85.7916 17.1082L75.3756 10.5362L73.0196 11.1562H48.5916C49.7076 9.29619 50.9476 7.43619 52.0636 5.57619L35.9436 2.47619C29.6196 13.7602 18.2116 26.4082 1.59559 35.8322C4.81959 38.1882 9.53159 43.6442 11.6396 47.2402C12.7556 46.4962 13.8716 45.7522 14.9876 45.0082V75.5122H36.3156C34.2076 90.1442 29.3716 100.188 0.975586 105.768C4.07559 108.868 7.79559 114.944 9.15959 118.788C42.2676 110.852 49.3356 96.4682 52.1876 75.5122H66.1996V100.312C66.1996 113.704 69.7956 118.292 84.3036 118.292H100.052C112.08 118.292 115.924 113.332 117.536 94.4842C113.444 93.4922 106.996 91.1362 103.772 88.7802C103.4 102.296 102.656 104.528 98.6876 104.528H86.6596Z" fill="white"/>
<path d="M145.188 30.3762H178.916V54.4322H193.3V30.3762H227.4V43.5202H241.04V21.6962H193.3V17.4802H231.988V7.06419H140.6V17.4802H178.916V21.6962H132.168V43.5202H145.188V30.3762ZM197.268 52.6962H226.16V45.3802H197.268V52.6962ZM197.268 34.2202V41.5362H223.184V34.2202H197.268ZM146.552 52.6962H175.072V45.3802H146.552V52.6962ZM149.28 34.2202V41.5362H174.948V34.2202H149.28ZM223.308 91.8802C219.836 94.3602 215.124 97.4602 211.032 99.6922C206.94 97.5842 203.716 94.9802 201.112 91.8802H223.308ZM176.808 91.8802H187.968C190.076 95.6002 192.68 98.9482 195.532 101.924L176.808 104.032V91.8802ZM227.896 91.8802H244.016V82.3322H152.504C152.876 78.9842 153 75.7602 153 72.7842V66.0882H238.188V56.7882H139.856V72.5362C139.856 83.4482 138.492 98.2042 127.084 108.62C130.06 110.356 135.392 115.068 137.376 117.672C144.94 110.604 148.908 101.18 151.016 91.8802H161.68V105.644C157.34 106.14 153.372 106.512 149.9 106.884L152.256 118.168C165.152 116.556 182.388 114.448 198.88 112.464L198.508 104.652C207.808 112.464 220.704 116.804 238.064 118.664C239.552 115.192 242.528 110.108 245.256 107.504C236.204 106.884 228.268 105.768 221.448 103.784C226.036 101.676 231.244 99.0722 235.956 95.9722L227.896 91.8802ZM231.244 78.2402V69.9322H157.588V78.2402H231.244Z" fill="white"/>
<path d="M321.02 95.3522V31.2442H362.684V15.8682H263.608V31.2442H304.156V95.3522H256.912V110.232H369.628V95.3522H321.02Z" fill="white"/>
<path d="M468.828 90.1442H446.508V84.3162H468.828V90.1442ZM446.508 67.7002H468.828V73.0322H446.508V67.7002ZM412.036 43.0242V37.0722H431.504V43.0242H412.036ZM466.596 37.0722V43.0242H446.508V37.0722H466.596ZM496.728 73.0322H483.832V57.7802H446.508V52.3242H481.724V27.7722H446.508V22.6882H493.876V11.0322H446.508V2.97219H431.504V11.0322H385.252V22.6882H431.504V27.7722H397.9V52.3242H431.504V57.7802H394.8V67.7002H431.504V73.0322H382.4V84.3162H431.504V90.1442H393.808V100.808H431.504V104.652C431.504 106.884 430.76 107.628 428.404 107.752C426.42 107.752 419.104 107.752 413.152 107.504C415.012 110.604 417.244 115.688 417.988 119.16C428.528 119.16 435.224 118.912 439.936 117.052C444.772 114.944 446.508 111.968 446.508 104.652V100.808H468.828V105.892H483.832V84.3162H496.728V73.0322Z" fill="white"/>
<path d="M596.62 72.8002C596.62 51.0002 581.02 33.8002 556.22 33.8002C530.32 33.8002 510.32 53.5002 510.32 76.6002C510.32 93.5002 519.52 105.7 530.62 105.7C541.52 105.7 550.12 93.3002 556.12 73.1002C559.02 63.7002 560.72 54.5002 562.12 46.0002C575.62 48.3002 583.12 58.6002 583.12 72.4002C583.12 87.0002 573.12 96.2002 560.32 99.2002C557.62 99.8002 554.82 100.4 551.02 100.8L558.52 112.7C583.72 108.8 596.62 93.9002 596.62 72.8002ZM523.12 75.3002C523.12 64.3002 532.02 49.7002 548.52 46.3002C547.42 54.6002 545.52 63.1002 543.22 70.5002C539.12 84.0002 535.22 90.3002 531.02 90.3002C527.12 90.3002 523.12 85.4002 523.12 75.3002Z" fill="white"/>
<path d="M702.516 6.19619L692.72 10.1642C695.448 14.1322 698.424 19.5882 700.78 24.3002C698.052 25.0442 694.456 25.4162 691.108 25.4162H665.812C667.3 22.6882 670.524 17.1082 673.5 12.7682L655.52 7.18819C654.404 11.4042 651.8 17.1082 649.94 20.0842C643.616 30.8722 632.084 47.8602 610.384 61.2522L623.776 71.6682C636.3 62.9882 647.832 51.0842 656.512 39.5522H691.976C690.116 47.2402 684.784 57.9042 678.46 66.9562C670.524 61.6242 662.712 56.5402 656.14 52.8202L645.104 64.1042C651.428 68.1962 659.612 73.7762 667.672 79.6042C657.504 90.0202 643.74 100.064 622.288 106.636L636.672 119.16C656.016 111.844 670.028 101.304 680.94 89.7722C686.024 93.8642 690.612 97.7082 693.96 100.808L705.864 86.7962C702.144 83.8202 697.308 80.2242 691.976 76.3802C700.904 63.9802 707.104 50.7122 710.328 40.6682C711.444 37.5682 713.056 34.2202 714.42 31.7402L705.368 26.1602L712.312 23.1842C710.08 18.5962 705.616 10.6602 702.516 6.19619ZM717.148 0.492188L707.352 4.58419C710.824 9.29619 714.792 16.4882 717.396 21.6962L727.192 17.3562C724.96 13.0162 720.372 5.20419 717.148 0.492188Z" fill="white"/>
<path d="M740.088 59.7642L747.9 75.3882C763.152 70.9242 778.9 64.2282 791.672 57.5322V97.2122C791.672 102.668 791.3 110.48 790.804 113.456H810.396C809.528 110.356 809.28 102.668 809.28 97.2122V47.1162C821.308 39.1802 833.212 29.5082 842.636 20.2082L829.244 7.43619C821.184 17.2322 807.048 29.6322 794.276 37.5682C780.512 46.0002 762.284 54.0602 740.088 59.7642Z" fill="white"/>
<path d="M897.816 96.0962C897.816 101.056 897.32 108.496 896.576 113.456H915.92C915.424 108.372 914.804 99.6922 914.804 96.0962V61.0042C928.196 65.5922 946.796 72.7842 959.568 79.4802L966.636 62.3682C955.228 56.7882 931.42 47.9842 914.804 43.1482V24.7962C914.804 19.7122 915.424 14.2562 915.92 9.91619H896.576C897.444 14.2562 897.816 20.4562 897.816 24.7962V96.0962Z" fill="white"/>
<path d="M996.768 50.5882V70.0562C1001.36 69.6842 1009.66 69.4362 1016.73 69.4362H1083.32C1088.53 69.4362 1094.85 69.9322 1097.83 70.0562V50.5882C1094.6 50.8362 1089.15 51.3322 1083.32 51.3322H1016.73C1010.28 51.3322 1001.23 50.9602 996.768 50.5882Z" fill="white"/>
<path d="M1134.56 77.2482C1123.65 77.2482 1114.6 86.3002 1114.6 97.3362C1114.6 108.372 1123.65 117.424 1134.56 117.424C1145.72 117.424 1154.65 108.372 1154.65 97.3362C1154.65 86.3002 1145.72 77.2482 1134.56 77.2482ZM1134.56 108.496C1128.61 108.496 1123.52 103.536 1123.52 97.3362C1123.52 91.1362 1128.61 86.1762 1134.56 86.1762C1140.76 86.1762 1145.72 91.1362 1145.72 97.3362C1145.72 103.536 1140.76 108.496 1134.56 108.496Z" fill="white"/>
</svg>
