<svg width="597" height="263" viewBox="0 0 597 263" fill="none" xmlns="http://www.w3.org/2000/svg">
<path d="M29.6196 44.0001H52.5596V60.3681H29.6196V44.0001ZM64.4636 21.1841C62.3556 24.5321 59.8756 28.0041 57.3956 30.9801H30.2396C33.5876 27.8801 36.6876 24.5321 39.5396 21.1841H64.4636ZM91.9916 60.3681H66.8196V44.0001H91.9916V60.3681ZM86.6596 102.528C82.3196 102.528 81.5756 101.908 81.5756 98.0641V73.5121H107.74V30.9801H75.0036C79.0956 25.6481 83.0636 19.9441 85.7916 15.1081L75.3756 8.53607L73.0196 9.15607H48.5916C49.7076 7.29607 50.9476 5.43607 52.0636 3.57607L35.9436 0.476074C29.6196 11.7601 18.2116 24.4081 1.59559 33.8321C4.81959 36.1881 9.53159 41.6441 11.6396 45.2401C12.7556 44.4961 13.8716 43.7521 14.9876 43.0081V73.5121H36.3156C34.2076 88.1441 29.3716 98.1881 0.975586 103.768C4.07559 106.868 7.79559 112.944 9.15959 116.788C42.2676 108.852 49.3356 94.4681 52.1876 73.5121H66.1996V98.3121C66.1996 111.704 69.7956 116.292 84.3036 116.292H100.052C112.08 116.292 115.924 111.332 117.536 92.4841C113.444 91.4921 106.996 89.1361 103.772 86.7801C103.4 100.296 102.656 102.528 98.6876 102.528H86.6596Z" fill="white"/>
<path d="M145.188 28.3761H178.916V52.4321H193.3V28.3761H227.4V41.5201H241.04V19.6961H193.3V15.4801H231.988V5.06407H140.6V15.4801H178.916V19.6961H132.168V41.5201H145.188V28.3761ZM197.268 50.6961H226.16V43.3801H197.268V50.6961ZM197.268 32.2201V39.5361H223.184V32.2201H197.268ZM146.552 50.6961H175.072V43.3801H146.552V50.6961ZM149.28 32.2201V39.5361H174.948V32.2201H149.28ZM223.308 89.8801C219.836 92.3601 215.124 95.4601 211.032 97.6921C206.94 95.5841 203.716 92.9801 201.112 89.8801H223.308ZM176.808 89.8801H187.968C190.076 93.6001 192.68 96.9481 195.532 99.9241L176.808 102.032V89.8801ZM227.896 89.8801H244.016V80.3321H152.504C152.876 76.9841 153 73.7601 153 70.7841V64.0881H238.188V54.7881H139.856V70.5361C139.856 81.4481 138.492 96.2041 127.084 106.62C130.06 108.356 135.392 113.068 137.376 115.672C144.94 108.604 148.908 99.1801 151.016 89.8801H161.68V103.644C157.34 104.14 153.372 104.512 149.9 104.884L152.256 116.168C165.152 114.556 182.388 112.448 198.88 110.464L198.508 102.652C207.808 110.464 220.704 114.804 238.064 116.664C239.552 113.192 242.528 108.108 245.256 105.504C236.204 104.884 228.268 103.768 221.448 101.784C226.036 99.6761 231.244 97.0721 235.956 93.9721L227.896 89.8801ZM231.244 76.2401V67.9321H157.588V76.2401H231.244Z" fill="white"/>
<path d="M321.02 93.3521V29.2441H362.684V13.8681H263.608V29.2441H304.156V93.3521H256.912V108.232H369.628V93.3521H321.02Z" fill="white"/>
<path d="M468.828 88.1441H446.508V82.3161H468.828V88.1441ZM446.508 65.7001H468.828V71.0321H446.508V65.7001ZM412.036 41.0241V35.0721H431.504V41.0241H412.036ZM466.596 35.0721V41.0241H446.508V35.0721H466.596ZM496.728 71.0321H483.832V55.7801H446.508V50.3241H481.724V25.7721H446.508V20.6881H493.876V9.03207H446.508V0.972068H431.504V9.03207H385.252V20.6881H431.504V25.7721H397.9V50.3241H431.504V55.7801H394.8V65.7001H431.504V71.0321H382.4V82.3161H431.504V88.1441H393.808V98.8081H431.504V102.652C431.504 104.884 430.76 105.628 428.404 105.752C426.42 105.752 419.104 105.752 413.152 105.504C415.012 108.604 417.244 113.688 417.988 117.16C428.528 117.16 435.224 116.912 439.936 115.052C444.772 112.944 446.508 109.968 446.508 102.652V98.8081H468.828V103.892H483.832V82.3161H496.728V71.0321Z" fill="white"/>
<path d="M596.62 70.8001C596.62 49.0001 581.02 31.8001 556.22 31.8001C530.32 31.8001 510.32 51.5001 510.32 74.6001C510.32 91.5001 519.52 103.7 530.62 103.7C541.52 103.7 550.12 91.3001 556.12 71.1001C559.02 61.7001 560.72 52.5001 562.12 44.0001C575.62 46.3001 583.12 56.6001 583.12 70.4001C583.12 85.0001 573.12 94.2001 560.32 97.2001C557.62 97.8001 554.82 98.4001 551.02 98.8001L558.52 110.7C583.72 106.8 596.62 91.9001 596.62 70.8001ZM523.12 73.3001C523.12 62.3001 532.02 47.7001 548.52 44.3001C547.42 52.6001 545.52 61.1001 543.22 68.5001C539.12 82.0001 535.22 88.3001 531.02 88.3001C527.12 88.3001 523.12 83.4001 523.12 73.3001Z" fill="white"/>
<path d="M94.5956 149.196L84.7996 153.164C87.5276 157.132 90.5036 162.588 92.8596 167.3C90.1316 168.044 86.5356 168.416 83.1876 168.416H57.8916C59.3796 165.688 62.6036 160.108 65.5796 155.768L47.5996 150.188C46.4836 154.404 43.8796 160.108 42.0196 163.084C35.6956 173.872 24.1636 190.86 2.46359 204.252L15.8556 214.668C28.3796 205.988 39.9116 194.084 48.5916 182.552H84.0556C82.1956 190.24 76.8636 200.904 70.5396 209.956C62.6036 204.624 54.7916 199.54 48.2196 195.82L37.1836 207.104C43.5076 211.196 51.6916 216.776 59.7516 222.604C49.5836 233.02 35.8196 243.064 14.3676 249.636L28.7516 262.16C48.0956 254.844 62.1076 244.304 73.0196 232.772C78.1036 236.864 82.6916 240.708 86.0396 243.808L97.9436 229.796C94.2236 226.82 89.3876 223.224 84.0556 219.38C92.9836 206.98 99.1836 193.712 102.408 183.668C103.524 180.568 105.136 177.22 106.5 174.74L97.4476 169.16L104.392 166.184C102.16 161.596 97.6956 153.66 94.5956 149.196ZM109.228 143.492L99.4316 147.584C102.904 152.296 106.872 159.488 109.476 164.696L119.272 160.356C117.04 156.016 112.452 148.204 109.228 143.492Z" fill="white"/>
<path d="M132.168 202.764L139.98 218.388C155.232 213.924 170.98 207.228 183.752 200.532V240.212C183.752 245.668 183.38 253.48 182.884 256.456H202.476C201.608 253.356 201.36 245.668 201.36 240.212V190.116C213.388 182.18 225.292 172.508 234.716 163.208L221.324 150.436C213.264 160.232 199.128 172.632 186.356 180.568C172.592 189 154.364 197.06 132.168 202.764Z" fill="white"/>
<path d="M289.896 239.096C289.896 244.056 289.4 251.496 288.656 256.456H308C307.504 251.372 306.884 242.692 306.884 239.096V204.004C320.276 208.592 338.876 215.784 351.648 222.48L358.716 205.368C347.308 199.788 323.5 190.984 306.884 186.148V167.796C306.884 162.712 307.504 157.256 308 152.916H288.656C289.524 157.256 289.896 163.456 289.896 167.796V239.096Z" fill="white"/>
<path d="M388.848 193.588V213.056C393.436 212.684 401.744 212.436 408.812 212.436H475.4C480.608 212.436 486.932 212.932 489.908 213.056V193.588C486.684 193.836 481.228 194.332 475.4 194.332H408.812C402.364 194.332 393.312 193.96 388.848 193.588Z" fill="white"/>
<path d="M526.641 220.248C515.729 220.248 506.677 229.3 506.677 240.336C506.677 251.372 515.729 260.424 526.641 260.424C537.801 260.424 546.729 251.372 546.729 240.336C546.729 229.3 537.801 220.248 526.641 220.248ZM526.641 251.496C520.689 251.496 515.605 246.536 515.605 240.336C515.605 234.136 520.689 229.176 526.641 229.176C532.841 229.176 537.801 234.136 537.801 240.336C537.801 246.536 532.841 251.496 526.641 251.496Z" fill="white"/>
</svg>
